<?xml version="1.0" encoding="utf-8"?>
<!-- Generator: Adobe Illustrator 24.0.1, SVG Export Plug-In . SVG Version: 6.00 Build 0)  -->
<svg version="1.1" id="Слой_1" xmlns="http://www.w3.org/2000/svg" xmlns:xlink="http://www.w3.org/1999/xlink" x="0px" y="0px"
	 viewBox="0 0 1984.2 2834.6" style="enable-background:new 0 0 1984.2 2834.6;" xml:space="preserve">
<style type="text/css">
	.st0{fill:#12100B;}
	.st1{clip-path:url(#SVGID_2_);fill:#12100B;}
	.st2{clip-path:url(#SVGID_2_);}
	.st3{clip-path:url(#SVGID_2_);fill-rule:evenodd;clip-rule:evenodd;fill:#102D69;}
	.st4{clip-path:url(#SVGID_2_);fill-rule:evenodd;clip-rule:evenodd;fill:#FFFFFF;}
</style>
<polygon class="st0" points="396.5,2718.4 371.5,2718.4 371.5,2681 365.9,2681 365.9,2723.1 396.5,2723.1 "/>
<polygon class="st0" points="434.9,2718.4 409.3,2718.4 409.3,2681 403.7,2681 403.7,2723.1 434.9,2723.1 "/>
<rect x="443.3" y="2681" class="st0" width="5.6" height="42"/>
<g>
	<defs>
		<rect id="SVGID_1_" y="0" width="1984.2" height="2834.6"/>
	</defs>
	<clipPath id="SVGID_2_">
		<use xlink:href="#SVGID_1_"  style="overflow:visible;"/>
	</clipPath>
	<path class="st1" d="M279.5,2745.8c0-5.5,4.7-7.2,9.4-7.2c5.8,0,9.8,2.5,10.4,8.6h5.3c-0.3-9.2-6.9-13.3-15.5-13.3
		c-7.7,0-15.3,3.8-15.3,12.3c0,15.4,26.9,7.8,26.9,19.4c0,6.1-5.6,7.7-10.7,7.7c-6.4,0-12.2-3.1-12.2-10.1h-5.3
		c0,10.2,7.9,14.8,17.4,14.8c7.7,0,16.4-3.6,16.4-12.5C306.4,2748.9,279.5,2756.2,279.5,2745.8"/>
	<polygon class="st1" points="310.7,2739.6 324.7,2739.6 324.7,2777 330.3,2777 330.3,2739.6 344.3,2739.6 344.3,2734.9 
		310.7,2734.9 	"/>
	<rect x="443.3" y="2734.9" class="st1" width="5.6" height="42"/>
	<polygon class="st1" points="459,2777 498.9,2777 498.9,2772.2 464.4,2772.2 464.4,2757.7 498.9,2757.7 498.9,2753 464.4,2753 
		464.4,2739.6 498.9,2739.6 498.9,2734.9 459,2734.9 	"/>
	<polygon class="st1" points="358.6,2718.4 330.1,2718.4 330.1,2703.8 356.8,2703.8 356.8,2699.1 330.1,2699.1 330.1,2685.8 
		358.4,2685.8 358.4,2681 324.7,2681 324.7,2723.1 358.6,2723.1 	"/>
	<path class="st1" d="M526.8,2754.5c-5.6,8.8-10.9,17.5-21,17.5v4.8c13.5,0,20.2-10.5,26.1-19.8c5.5-8.7,10.7-17.3,20.5-17.3v-4.8
		C539.2,2735,532.6,2745.3,526.8,2754.5"/>
	<polygon class="st1" points="279,2723.1 305.7,2685.7 318.5,2685.7 318.5,2681 272.6,2681 272.6,2685.7 299.2,2685.7 272.6,2723.1 
			"/>
	<polygon class="st1" points="500.2,2718.4 497.5,2718.4 470.5,2681 459,2681 459,2685.8 459,2723.1 464.4,2723.1 464.4,2685.8 
		467.5,2685.8 494.5,2723.1 505.5,2723.1 505.6,2723.1 505.6,2681 500.2,2681 	"/>
	<path class="st1" d="M434.3,2747.3c0-7.8-4.5-12.4-12.9-12.4h-25v42h5.6v-17.2h16l12.4,17.2h6.5l-12.6-17.4
		C430.9,2758.6,434.3,2754.2,434.3,2747.3 M402,2755.1v-15.4h17.5c6.4,0,9.2,2.7,9.2,7.7c0,5-2.8,7.8-9.2,7.7H402z"/>
	<path class="st1" d="M366.8,2734.6c-11.8,0-21.3,9.6-21.3,21.3s9.5,21.3,21.3,21.3c11.8,0,21.3-9.6,21.3-21.3
		S378.5,2734.6,366.8,2734.6 M366.8,2772.1c-8.9,0-16.1-7.2-16.1-16.1c0-8.9,7.2-16.1,16.1-16.1c8.9,0,16.1,7.2,16.1,16.1
		C382.9,2764.8,375.6,2772.1,366.8,2772.1"/>
	<path class="st1" d="M533.5,2700.8v4.7h13.1c-1.3,7.8-6.8,13.6-13.9,13.6c-8.7,0-15.6-7.5-15.6-17.1s6.9-17.1,15.6-17.1
		c6,0,10.6,3.5,13.3,8.9h5.6c-3.1-8.1-10.1-13.8-18.9-13.8c-11.5,0-20.8,9.9-20.8,22c0,12.2,9.3,22,20.8,22c5.8,0,11-3.2,14.6-8
		l1.9,7h3.1v-22.2H533.5z"/>
	<path class="st1" d="M195.9,2725.7c-11.5,20.1-22.4,39.3-43.3,39.3v11.9c27.8,0,41.6-24,53.7-45.1c11.4-19.8,22.1-38.7,42.3-38.7
		v-11.9C221.5,2681.2,207.9,2704.8,195.9,2725.7"/>
	<polygon class="st1" points="200.6,2681 56.7,2681 56.7,2693 129.2,2693 68.7,2777 83.4,2777 144,2693 200.6,2693 	"/>
	<polygon class="st2" points="1812.6,2706.6 1808,2706.6 1808,2727.4 1801.2,2727.4 1801.2,2680 1808,2680 1808,2699 1812.6,2699 
		1812.6,2680 1819.3,2680 1819.3,2727.4 1812.6,2727.4 	"/>
	<path class="st2" d="M1830.8,2728h-1.3c-5.4,0-8.2-3.1-8.2-9v-9.5h6.7v8.3c0,2.2,0.7,3.3,2.2,3.3c1.6,0,2.2-1.1,2.2-4.1v-1.1
		c0-3.4-0.3-4.6-2.7-8l-4.3-5.9c-2.9-3.9-3.7-7-3.7-11.7v-1.5c0-6.3,3-9.2,8.3-9.2h1.3c5.5,0,7.7,2.6,7.7,8.2v7.8h-6.5v-6.8
		c0-1.6-0.3-2.8-1.9-2.8s-2,1.1-2,3.3v0.9c0,2.7,0.5,4.1,2.7,7.3l4.3,5.9c3,4.2,4,6.6,4,12v1.5
		C1839.5,2723.8,1836.7,2728,1830.8,2728"/>
	<polygon class="st2" points="1856.7,2680 1856.7,2686.9 1848.1,2686.9 1848.1,2699.4 1854.8,2699.4 1854.8,2706.6 1848.1,2706.6 
		1848.1,2720.2 1857,2720.2 1857,2727.4 1841.4,2727.4 1841.4,2680 	"/>
	<path class="st2" d="M1874.5,2711.5l-1.8-17.5l-1.7,17.5H1874.5z M1875.2,2718.5h-4.9l-0.9,8.9h-6l5.4-47.4h8l5.8,47.4h-6.5
		L1875.2,2718.5z"/>
	<path class="st2" d="M1890.4,2699.5h1.8c1.8,0,2.4-1.3,2.4-3.4v-6.6c0-2-0.4-3.1-2.4-3.1h-1.8V2699.5z M1890.4,2727.4h-6.7V2680
		h10.9c4.5,0,6.7,2,6.7,7.3v8.4c0,3.9-1.7,5.5-2.9,6.1c1.5,0.7,2.9,2,2.9,5.2v16.6c0,1.9,0.4,2.8,0.7,3.5v0.3h-6.7
		c-0.3-0.5-0.7-1.3-0.7-3.9v-14.3c0-2.1-0.4-3-2.5-3h-1.7V2727.4z"/>
	<polygon class="st2" points="1914.9,2686.9 1914.9,2727.4 1908.2,2727.4 1908.2,2686.9 1902.5,2686.9 1902.5,2680 1920.5,2680 
		1920.5,2686.9 	"/>
	<path class="st2" d="M1807.9,2778c3.4,0,5.7-3.7,6.1-5.3c0.5,2,1.1,4.4,1.1,4.7h3.8v-28.8h-9.4v7.3h3v11.8c0,1.8-0.8,3.1-2.5,3.1
		c-1.4,0-2.2-1.1-2.2-3.4v-27.7c0-2.1,0.7-3.2,2.1-3.2c1.7,0,2.1,1.1,2.1,3.2v5.4h6.6v-4.8c0-5.6-0.8-10.6-8-10.6h-1.3
		c-6.4,0-8.3,4.9-8.3,10.2v29.6c0,4.9,2.5,8.7,6.4,8.7H1807.9z"/>
	<path class="st2" d="M1832.6,2777.3h6.5l-5.8-47.4h-8l-5.4,47.4h6l0.9-8.9h4.9L1832.6,2777.3z M1827.5,2761.3l1.7-17.5l1.8,17.5
		H1827.5z"/>
	<polygon class="st2" points="1840.1,2729.9 1840.1,2777.3 1855.1,2777.3 1855.1,2770 1846.9,2770 1846.9,2729.9 	"/>
	<polygon class="st2" points="1856.8,2729.9 1856.8,2777.3 1871.8,2777.3 1871.8,2770 1863.5,2770 1863.5,2729.9 	"/>
	<polygon class="st2" points="1873.5,2729.9 1873.5,2777.3 1889.1,2777.3 1889.1,2770.1 1880.2,2770.1 1880.2,2756.4 1886.9,2756.4 
		1886.9,2749.2 1880.2,2749.2 1880.2,2736.8 1888.8,2736.8 1888.8,2729.9 	"/>
	<path class="st2" d="M1897.6,2756.2h1.7c2.1,0,2.5,0.9,2.5,3v14.3c0,2.5,0.4,3.4,0.7,3.9h6.7v-0.3c-0.3-0.7-0.7-1.6-0.7-3.5v-16.6
		c0-3.2-1.4-4.5-2.9-5.2c1.2-0.6,2.9-2.1,2.9-6.1v-8.4c0-5.3-2.3-7.3-6.7-7.3h-10.9v47.4h6.7V2756.2z M1897.6,2736.4h1.8
		c2,0,2.4,1,2.4,3.1v6.6c0,2.1-0.6,3.4-2.4,3.4h-1.8V2736.4z"/>
	<polygon class="st2" points="1921.7,2757.6 1927.6,2729.9 1921.5,2729.9 1918.5,2747.6 1915.4,2729.9 1908.9,2729.9 1914.9,2757.6 
		1914.9,2777.3 1921.7,2777.3 	"/>
	<polygon class="st2" points="1457.7,2680.2 1457.7,2699.1 1452.8,2699.1 1452.8,2680.2 1445.7,2680.2 1445.7,2727.4 1452.8,2727.4 
		1452.8,2706.7 1457.7,2706.7 1457.7,2727.4 1464.9,2727.4 1464.9,2680.2 	"/>
	<path class="st2" d="M1477.2,2728h-1.4c-5.7,0-8.8-3.1-8.8-9v-9.5h7.1v8.3c0,2.2,0.7,3.3,2.3,3.3c1.7,0,2.3-1.1,2.3-4.1v-1.1
		c0-3.4-0.3-4.6-2.9-7.9l-4.6-5.8c-3-3.9-3.9-7-3.9-11.7v-1.5c0-6.3,3.2-9.2,8.8-9.2h1.3c5.9,0,8.2,2.6,8.2,8.2v7.7h-6.9v-6.8
		c0-1.6-0.3-2.8-2-2.8c-1.7,0-2.1,1.1-2.1,3.3v0.9c0,2.7,0.5,4.1,2.9,7.2l4.6,5.9c3.2,4.2,4.3,6.6,4.3,11.9v1.5
		C1486.4,2723.8,1483.5,2728,1477.2,2728"/>
	<polygon class="st2" points="1504.8,2680.2 1504.8,2687 1495.7,2687 1495.7,2699.4 1502.8,2699.4 1502.8,2706.6 1495.7,2706.6 
		1495.7,2720.3 1505.2,2720.3 1505.2,2727.4 1488.5,2727.4 1488.5,2680.2 	"/>
	<path class="st2" d="M1524.6,2718.6h-5.2l-1,8.9h-6.4l5.8-47.3h8.5l6.2,47.3h-6.9L1524.6,2718.6z M1523.8,2711.5l-1.9-17.5
		l-1.8,17.5H1523.8z"/>
	<path class="st2" d="M1540.8,2727.4h-7.2v-47.3h11.6c4.8,0,7.2,2,7.2,7.3v8.4c0,3.9-1.8,5.5-3.1,6c1.6,0.7,3.1,2,3.1,5.1v16.6
		c0,1.9,0.4,2.8,0.7,3.5v0.3h-7.1c-0.3-0.5-0.7-1.3-0.7-3.9v-14.2c0-2.1-0.4-3-2.7-3h-1.8V2727.4z M1540.8,2699.6h1.9
		c2,0,2.6-1.3,2.6-3.4v-6.6c0-2-0.4-3-2.6-3h-1.9V2699.6z"/>
	<polygon class="st2" points="1566.9,2687 1566.9,2727.4 1559.7,2727.4 1559.7,2687 1553.7,2687 1553.7,2680.2 1572.9,2680.2 
		1572.9,2687 	"/>
	<path class="st2" d="M1592.1,2718.6h-5.2l-1,8.9h-6.4l5.8-47.3h8.5l6.2,47.3h-6.9L1592.1,2718.6z M1591.3,2711.5l-1.9-17.5
		l-1.8,17.5H1591.3z"/>
	<polygon class="st2" points="1607.6,2680.2 1613.8,2705.5 1613.8,2680.2 1620.3,2680.2 1620.3,2727.4 1614.5,2727.4 1607.6,2700.3 
		1607.6,2727.4 1601.1,2727.4 1601.1,2680.2 	"/>
	<path class="st2" d="M1623,2680.2h11c6.2,0,8.1,3.5,8.1,9.1v28.8c0,5.8-2.2,9.4-8.1,9.4h-11V2680.2z M1630.1,2720.6h1.7
		c2.2,0,2.8-1.1,2.8-3.7v-26.6c0-2.7-0.7-3.7-2.5-3.7h-2V2720.6z"/>
	<path class="st2" d="M1445.7,2729.9h11c6.2,0,8.1,3.5,8.1,9.1v28.8c0,5.8-2.2,9.4-8.1,9.4h-11V2729.9z M1452.8,2770.3h1.7
		c2.2,0,2.8-1.1,2.8-3.7V2740c0-2.7-0.7-3.7-2.5-3.7h-2V2770.3z"/>
	<polygon class="st2" points="1483.6,2729.9 1483.6,2736.8 1474.4,2736.8 1474.4,2749.2 1481.6,2749.2 1481.6,2756.3 1474.4,2756.3 
		1474.4,2770 1484,2770 1484,2777.2 1467.3,2777.2 1467.3,2729.9 	"/>
	<path class="st2" d="M1495.4,2777.7h-1.4c-5.7,0-8.8-3.1-8.8-9v-9.5h7.1v8.3c0,2.2,0.7,3.3,2.3,3.3c1.7,0,2.4-1.1,2.4-4.1v-1.1
		c0-3.4-0.3-4.6-2.9-7.9l-4.6-5.8c-3-3.9-3.9-7-3.9-11.7v-1.5c0-6.3,3.2-9.2,8.8-9.2h1.3c5.9,0,8.2,2.6,8.2,8.2v7.7h-6.9v-6.8
		c0-1.6-0.3-2.8-2-2.8c-1.7,0-2.1,1.1-2.1,3.3v0.9c0,2.7,0.5,4.1,2.9,7.2l4.6,5.9c3.2,4.2,4.3,6.6,4.3,11.9v1.5
		C1504.7,2773.5,1501.7,2777.7,1495.4,2777.7"/>
	<rect x="1506.7" y="2729.9" class="st2" width="7.2" height="47.3"/>
	<path class="st2" d="M1523.2,2777.8c-4.2,0-6.9-3.7-6.9-8.6v-29.5c0-5.3,2-10.2,8.8-10.2h1.4c7.7,0,8.6,5,8.6,10.6v4.8h-7v-5.3
		c0-2.1-0.5-3.2-2.3-3.2c-1.5,0-2.2,1.1-2.2,3.2v27.6c0,2.2,0.9,3.4,2.3,3.4c1.8,0,2.7-1.3,2.7-3v-11.8h-3.2v-7.2h10v28.7h-4.1
		c-0.1-0.3-0.6-2.6-1.2-4.6c-0.5,1.6-2.9,5.3-6.5,5.3H1523.2z"/>
	<polygon class="st2" points="1544.4,2729.9 1550.6,2755.2 1550.6,2729.9 1557.1,2729.9 1557.1,2777.2 1551.3,2777.2 1544.4,2750 
		1544.4,2777.2 1538,2777.2 1538,2729.9 	"/>
	<path class="st2" d="M1575.9,2777.7h-1.4c-5.7,0-8.8-3.1-8.8-9v-9.5h7.1v8.3c0,2.2,0.7,3.3,2.3,3.3c1.7,0,2.3-1.1,2.3-4.1v-1.1
		c0-3.4-0.3-4.6-2.9-7.9l-4.6-5.8c-3-3.9-3.9-7-3.9-11.7v-1.5c0-6.3,3.2-9.2,8.8-9.2h1.3c5.9,0,8.2,2.6,8.2,8.2v7.7h-6.9v-6.8
		c0-1.6-0.3-2.8-2-2.8c-1.7,0-2.1,1.1-2.1,3.3v0.9c0,2.7,0.5,4.1,2.9,7.2l4.6,5.9c3.2,4.2,4.3,6.6,4.3,11.9v1.5
		C1585.2,2773.5,1582.2,2777.7,1575.9,2777.7"/>
	<path class="st2" d="M1598.9,2767.6v-11h7.1v10.9c0,5.1-1.7,10.2-8.6,10.2h-1.6c-7.2,0-8.8-5.2-8.8-10v-28.8c0-4.8,2.1-9.5,8.6-9.5
		h1.7c7.9,0,8.8,5.2,8.8,9.8v8.4h-7.1v-8.3c0-2-0.6-3.1-2.4-3.1s-2.2,1-2.2,3.1v28.1c0,2.1,0.7,3.2,2.3,3.2
		C1598.3,2770.7,1598.9,2769.5,1598.9,2767.6"/>
	<polygon class="st2" points="1620.3,2756.4 1615.4,2756.4 1615.4,2777.2 1608.3,2777.2 1608.3,2729.9 1615.4,2729.9 1615.4,2748.8 
		1620.3,2748.8 1620.3,2729.9 1627.5,2729.9 1627.5,2777.2 1620.3,2777.2 	"/>
	<path class="st2" d="M1649.6,2766.6c0,6.6-2.2,11.1-9.1,11.1h-1.2c-6.9,0-9.3-4.5-9.3-11.1v-26.3c0-6.5,2.5-10.9,9.2-10.9h1.2
		c7,0,9.2,4.3,9.2,10.8V2766.6z M1642.3,2739.9c0-2.5-0.8-3.6-2.5-3.6c-1.8,0-2.5,1.2-2.5,3.6v27.2c0,2,0.6,3.6,2.6,3.6
		c1.9,0,2.4-1.6,2.4-3.6V2739.9z"/>
	<path class="st2" d="M1671.5,2766.6c0,6.6-2.2,11.1-9.1,11.1h-1.2c-6.9,0-9.3-4.5-9.3-11.1v-26.3c0-6.5,2.5-10.9,9.2-10.9h1.2
		c7,0,9.2,4.3,9.2,10.8V2766.6z M1664.2,2739.9c0-2.5-0.8-3.6-2.5-3.6c-1.8,0-2.5,1.2-2.5,3.6v27.2c0,2,0.6,3.6,2.6,3.6
		c1.9,0,2.4-1.6,2.4-3.6V2739.9z"/>
	<polygon class="st2" points="1681.2,2729.9 1681.2,2769.9 1690,2769.9 1690,2777.2 1674,2777.2 1674,2729.9 	"/>
	<path class="st3" d="M1700,2729.4c-5.4,0-9.7,4.3-9.7,9.7c0,5.4,4.3,9.7,9.7,9.7c5.4,0,9.7-4.3,9.7-9.7
		C1709.6,2733.7,1705.3,2729.4,1700,2729.4"/>
	<path class="st4" d="M1701.6,2738.2c0.6-0.3,1-0.7,1.3-1c0.5-0.6,0.7-1.2,0.7-1.9c0-0.5-0.1-1.5-1-2.3c-0.6-0.5-1.2-0.7-2.5-0.7
		h-0.7c0,0,0,0-0.1,0h-2.7v13h7.8v-2.5C1704.4,2740.5,1703.6,2738.9,1701.6,2738.2 M1702.6,2744.7h-1.4v-4.3h-1.6v4.3h-1.2V2733h1.3
		c0.5,0,1.2,0.1,1.7,0.7c0.3,0.3,0.4,0.8,0.5,1.2h-2.3v0.6h2.3c0,0.4-0.1,0.9-0.5,1.4c-0.4,0.4-0.9,0.9-1.8,0.9h0v0.6
		c2.2,0,3.1,1.5,3.1,4.1V2744.7z"/>
</g>
</svg>
